<svg id="Bag_Documents" xmlns="http://www.w3.org/2000/svg" width="88.34" height="79.04" viewBox="0 0 88.34 79.04"><defs><style>.cls-1{fill:#999;}</style></defs><title>bag</title><path class="cls-1" d="M34.28,8.67a3.42,3.42,0,0,1,3.41-3.42h13a3.42,3.42,0,0,1,3.41,3.42v3.19h5.26V8.67A8.67,8.67,0,0,0,50.71,0h-13A8.67,8.67,0,0,0,29,8.67v3.19h5.26Z"/><path class="cls-1" d="M71.28,47.47h-20v3.9H37.17v-3.9h-22c-2.26-.13-4.24-2.27-5.47-4.78L0,24.09V72.95A5.93,5.93,0,0,0,5.74,79H82.61a5.93,5.93,0,0,0,5.74-6.09V25.3L77,42.74C75.58,45.26,73.51,47.34,71.28,47.47Z"/><path class="cls-1" d="M82.61,13.88H5.74A5.91,5.91,0,0,0,0,19.76L.15,20l11.39,21.8c.9,2.13,3,3.78,3.65,3.65h22V41.52H51.24v3.92h20c.66.13,2.91-1.56,4-3.7l.05-.08L88.22,21.78l.12-.19V20A5.93,5.93,0,0,0,82.61,13.88Z"/><rect class="cls-1" x="39.19" y="43.54" width="10.03" height="5.8"/></svg>