<svg id="Balance" xmlns="http://www.w3.org/2000/svg" width="99.81" height="98.25" viewBox="0 0 99.81 98.25"><defs><style>.cls-1{fill:#999;}</style></defs><title>balance</title><path class="cls-1" d="M82.36,19.33a.87.87,0,0,0-.78.49l-15.83,32h2L82.36,22.18,97,51.83h2l-15.83-32A.89.89,0,0,0,82.36,19.33Z"/><path class="cls-1" d="M53.27,79.74V15.55a8.93,8.93,0,0,1-6.74,0V79.74c1.1-.09,2.22-.15,3.37-.15S52.17,79.65,53.27,79.74ZM50.16,18.16a.67.67,0,1,1,1.35,0V77.62a.67.67,0,1,1-1.35,0Z"/><path class="cls-1" d="M28.88,89.79h42c-2.46-4.32-9.29-7.59-17.66-8.29-1.1-.09-2.22-.16-3.37-.16s-2.27.06-3.37.16C38.17,82.2,31.35,85.46,28.88,89.79Z"/><path class="cls-1" d="M57.65,11.74c10.64,1.58,14.27,6.14,25.18,6.14,15.68,0,20.41-11,14.55-12.5-1.81-.48-3.43.27-4.57,2.29C92,9.09,91.94,15,82.9,15,72.12,15,70.07,4.74,57.1,1.87a8.93,8.93,0,0,1,.56,9.87Z"/><path class="cls-1" d="M17.44,19.33a.88.88,0,0,0-.78.49L.83,51.83h2L17.44,22.18,32.11,51.83h2l-15.83-32A.88.88,0,0,0,17.44,19.33Z"/><path class="cls-1" d="M73.9,91.54h-48a7.6,7.6,0,0,0-7.53,6.71H81.43A7.6,7.6,0,0,0,73.9,91.54Z"/><path class="cls-1" d="M82.36,69.77a17.08,17.08,0,0,0,17-16.18H65.32A17.08,17.08,0,0,0,82.36,69.77Zm0-1.92c5.59,0,9.57-5.39,11.48-10.48h2.9A15.18,15.18,0,0,1,82.37,67.85h0Z"/><path class="cls-1" d="M44.1,11.49a7.23,7.23,0,0,0,2.43,2.09,6.93,6.93,0,0,0,6.74,0,7.23,7.23,0,1,0-9.17-2.09Zm5.8-6.13A1.86,1.86,0,1,1,48,7.23,1.86,1.86,0,0,1,49.9,5.36Z"/><path class="cls-1" d="M34.48,53.58H.41a17.06,17.06,0,0,0,34.08,0Zm-17,14.26h0c5.59,0,9.57-5.39,11.48-10.48h2.9A15.18,15.18,0,0,1,17.47,67.85Z"/><path class="cls-1" d="M17,17.88c10.9,0,14.53-4.56,25.17-6.14a8.92,8.92,0,0,1,.56-9.87C29.73,4.74,27.69,15,16.9,15c-9,0-9.11-6-9.91-7.37-1.14-2-2.75-2.77-4.57-2.29C-3.44,6.93,1.29,17.88,17,17.88Z"/></svg>