<svg id="Layer_3" data-name="Layer 3" xmlns="http://www.w3.org/2000/svg" width="16.28" height="22.38" viewBox="0 0 16.28 22.38"><defs><style>.cls-1{fill:#fff;}</style></defs><title>input-name</title><path class="cls-1" d="M8.23,9.76a4.62,4.62,0,0,0,4.3-4.88A4.62,4.62,0,0,0,8.23,0a4.62,4.62,0,0,0-4.3,4.88A4.62,4.62,0,0,0,8.23,9.76ZM8.23,1a3.63,3.63,0,0,1,3.3,3.88,3.63,3.63,0,0,1-3.3,3.88,3.63,3.63,0,0,1-3.3-3.88A3.63,3.63,0,0,1,8.23,1Z"/><path class="cls-1" d="M13.65,13.32a16.43,16.43,0,0,0-11,0A4.21,4.21,0,0,0,0,17.19l.32,4.72a.5.5,0,0,0,.5.47H15.46a.5.5,0,0,0,.5-.47l.32-4.72A4.19,4.19,0,0,0,13.65,13.32ZM15,21.38H1.29L1,17.13a3.22,3.22,0,0,1,2-2.87,15.44,15.44,0,0,1,10.34,0,3.21,3.21,0,0,1,2,2.87Z"/></svg>