<svg id="Layer_3" data-name="Layer 3" xmlns="http://www.w3.org/2000/svg" width="22.22" height="22.23" viewBox="0 0 22.22 22.23"><defs><style>.cls-1{fill:#fff;}</style></defs><title>input-phone</title><path class="cls-1" d="M21.47,15.08a24.71,24.71,0,0,0-5.4-1.74,1.31,1.31,0,0,0-.28,0c-.3,0-1.14.1-1.43.55l-1.13,1.78c-.17.28-.83.25-1.32-.11a25,25,0,0,1-2.81-2.39A25.57,25.57,0,0,1,6.7,10.31a1.38,1.38,0,0,1-.29-1A.45.45,0,0,1,6.6,9L8.37,7.87a2,2,0,0,0,.52-1.73C8.4,4.26,7.71,2.3,7.17.79,7,.28,6.11,0,5.58,0a1.3,1.3,0,0,0-.47.08A11.68,11.68,0,0,0,1,2.73,11.9,11.9,0,0,0,.11,3.78L0,3.91v.17A17.67,17.67,0,0,0,5.55,16.75a17.75,17.75,0,0,0,12.28,5.48h.49l.13-.1a12,12,0,0,0,1.06-.93,11.7,11.7,0,0,0,2.64-4.06A1.94,1.94,0,0,0,21.47,15.08Zm-.25,1.69a10.7,10.7,0,0,1-2.42,3.72,10.82,10.82,0,0,1-.84.75h-.14A16.74,16.74,0,0,1,6.26,16L6.19,16A16.65,16.65,0,0,1,1,4.27,10.58,10.58,0,0,1,5.47,1h.11a2.51,2.51,0,0,1,.65.14c.53,1.48,1.21,3.42,1.69,5.25A2.06,2.06,0,0,1,7.84,7L6.07,8.14a1.43,1.43,0,0,0-.64,1,2.33,2.33,0,0,0,.46,1.8A26.61,26.61,0,0,0,8.4,13.84a26.09,26.09,0,0,0,2.93,2.49,2,2,0,0,0,2.75-.17l1.08-1.72a1.36,1.36,0,0,1,.7-.14A24.26,24.26,0,0,1,21,16,1.25,1.25,0,0,1,21.22,16.76Z"/></svg>