<svg id="Layer_3" data-name="Layer 3" xmlns="http://www.w3.org/2000/svg" width="21.88" height="15.6" viewBox="0 0 21.88 15.6"><defs><style>.cls-1{fill:#fff;}</style></defs><title>input-mail</title><path class="cls-1" d="M21.88,1.86a1.84,1.84,0,0,0-.12-.65h0a1.84,1.84,0,0,0-.26-.46l0,0a1.85,1.85,0,0,0-.83-.58l-.09,0A1.83,1.83,0,0,0,20,0H1.86a1.83,1.83,0,0,0-.51.08l-.09,0A1.85,1.85,0,0,0,.43.68l0,.05a1.84,1.84,0,0,0-.26.45h0A1.84,1.84,0,0,0,0,1.86V13.74a1.84,1.84,0,0,0,.12.65s0,0,0,0h0a1.84,1.84,0,0,0,.26.45l0,.05a1.85,1.85,0,0,0,.83.57l.09,0a1.83,1.83,0,0,0,.51.08H20a1.83,1.83,0,0,0,.51-.08l.09,0a1.85,1.85,0,0,0,.83-.58l0,0a1.84,1.84,0,0,0,.26-.46h0a1.84,1.84,0,0,0,.12-.65Zm-7,5.94,6-5.39V13.19ZM20,1a.84.84,0,0,1,.34.07h0a.87.87,0,0,1,.26.19h0L10.94,9.94,1.23,1.28h0a.84.84,0,0,1,.2-.15l.08-.05A.85.85,0,0,1,1.86,1ZM1,2.41,7,7.8,1,13.19ZM1.86,14.6a.85.85,0,0,1-.34-.07l-.08-.05a.84.84,0,0,1-.2-.14h0L7.79,8.47,10.61,11a.5.5,0,0,0,.67,0l2.81-2.51,6.56,5.85h0a.87.87,0,0,1-.26.18h0a.84.84,0,0,1-.34.07Z"/></svg>