<svg id="Layer_3" data-name="Layer 3" xmlns="http://www.w3.org/2000/svg" width="22.21" height="21.24" viewBox="0 0 22.21 21.24"><defs><style>.cls-1{fill:#fff;}</style></defs><title>input-comment</title><path class="cls-1" d="M21.21,5.28a.5.5,0,0,0-.15-.35L16.29.15a.5.5,0,0,0-.71,0L.45,15.28a.5.5,0,0,0-.15.32L0,20.69a.5.5,0,0,0,.5.53h0l5.08-.3a.5.5,0,0,0,.32-.15L21.07,5.63A.5.5,0,0,0,21.21,5.28ZM5.36,19.93l-2.42.14a1.81,1.81,0,0,0-1.79-1.83l.14-2.38L13.48,3.66l1.68,1.68L3.63,16.88a.5.5,0,1,0,.71.71L15.87,6.05l1.68,1.68ZM18.26,7,14.19,3l1.75-1.75L20,5.28Z"/><path class="cls-1" d="M21.71,20.24H10.54a.5.5,0,0,0,0,1H21.71a.5.5,0,0,0,0-1Z"/></svg>