<svg id="Judgement" xmlns="http://www.w3.org/2000/svg" width="81.78" height="83.23" viewBox="0 0 81.78 83.23"><title>balance</title><path d="M69.18,43.88,42.65,59.07h0L80.5,80.74A6.19,6.19,0,0,0,81.78,77V36.66Z"/><path d="M24,20.91l-.83,1.48-5.09,9.08.11.06c.08,3.39,3.54,6.12,7.8,6.12s7.71-2.73,7.8-6.12l.12-.06L27.44,19.95,27,19.18l-.31-.56a2.34,2.34,0,0,0,1.3-1,2.38,2.38,0,0,0,.25-.58l1.42-.38L33,15.77l3.3-.89,1.84-.49a3.59,3.59,0,0,1-.24-.42,3.64,3.64,0,0,1-.31-.83,3.58,3.58,0,0,1-.09-.79c0-.06,0-.12,0-.18s0-.08,0-.12L27.6,14.69a2.35,2.35,0,1,0-2.33,3.94l-.44.79Zm1.44.18.55-1,.28.5,6.05,10.8H19.65Z"/><polygon points="13.48 42.36 14.35 42.86 14.35 1.76 67.43 1.76 67.43 42.86 68.31 42.36 69.18 41.86 80.89 35.15 69.18 28.44 69.18 0 12.6 0 12.6 28.44 0.89 35.15 12.6 41.86 13.48 42.36"/><path d="M42.92,43.27c-.6,0-1.2-.07-1.82-.07s-1.23,0-1.82.07c-5.7.39-10.07,2.55-10.07,5.17H53C53,45.82,48.62,43.66,42.92,43.27Z"/><path d="M39.28,15.45V41.92c.59,0,1.2-.06,1.82-.06s1.22,0,1.82.06V15.45a3.52,3.52,0,0,1-3.64,0Z"/><path d="M2.57,82a6.18,6.18,0,0,0,3.65,1.21H75.57A6.17,6.17,0,0,0,79.21,82L40.89,60.08Z"/><path d="M63.64,25.27a5.24,5.24,0,0,0,.25-.86,5.14,5.14,0,0,0,.11-.95v0l.11-.06-7.2-12.85a2.35,2.35,0,1,0-3-2.9l-9.89,2.65a3.58,3.58,0,0,1,.65,2.06h0s0,0,0,.06,0,.15,0,.22l.28-.07L54.57,10a2.36,2.36,0,0,0,.92.55l-3.42,6.1-.43.76-.43.76-2.93,5.22.12.06c0,3.42,3.52,6.18,7.8,6.18C59.69,29.62,62.64,27.79,63.64,25.27Zm-13.8-1.9,2.55-4.55.43-.76.43-.76,3-5.28L62,22.29l.61,1.09Z"/><path d="M43,13.48a2.3,2.3,0,0,0,.2-.46,3,3,0,0,0,.11-.67h0a2.22,2.22,0,0,0-.15-.79,2.25,2.25,0,0,0-4.07-.33,2.41,2.41,0,0,0-.31,1.12s0,0,0,.06a2.22,2.22,0,0,0,.21.89,2.26,2.26,0,0,0,.23.39,2.31,2.31,0,0,0,.29.32,2.24,2.24,0,0,0,3.35-.32Z"/><path d="M39.13,59.07,12.6,43.88,0,36.66V77a6.17,6.17,0,0,0,1.28,3.73L39.12,59.07Z"/></svg>