<?xml version="1.0" standalone="no"?>
<!DOCTYPE svg PUBLIC "-//W3C//DTD SVG 20010904//EN"
 "http://www.w3.org/TR/2001/REC-SVG-20010904/DTD/svg10.dtd">
<svg version="1.0" xmlns="http://www.w3.org/2000/svg"
 width="470.000000pt" height="470.000000pt" viewBox="0 0 470.000000 470.000000"
 preserveAspectRatio="xMidYMid meet">
<metadata>
Created by potrace 1.11, written by Peter Selinger 2001-2013
</metadata>
<g transform="translate(0.000000,470.000000) scale(0.100000,-0.100000)"
fill="#000000" stroke="none">
<path d="M47 4692 c-18 -4 -19 -11 -19 -192 -1 -88 11 -429 16 -480 2 -19 7
-71 11 -115 3 -44 8 -98 10 -120 3 -22 7 -62 10 -90 10 -93 26 -220 35 -280 5
-33 12 -78 15 -100 24 -159 87 -465 126 -612 48 -183 61 -227 105 -363 264
-824 707 -1457 1371 -1963 192 -146 546 -364 604 -371 51 -6 149 42 369 183
344 219 681 517 920 811 19 24 40 48 46 54 32 33 210 293 276 403 290 485 475
1018 612 1773 9 47 18 105 21 130 3 25 7 56 10 70 3 14 7 43 10 65 2 22 6 58
9 80 3 22 8 63 11 90 3 28 7 66 10 85 2 19 7 69 10 110 3 41 8 95 10 120 15
170 28 663 18 700 -4 13 -115 15 -1046 13 -573 0 -1052 -1 -1063 -2 -21 -1
-21 -2 -22 -328 0 -181 -1 -338 -1 -350 l-1 -23 -195 0 -195 0 0 353 0 352
-1038 0 c-571 0 -1046 -1 -1055 -3z m1800 -497 l-1 -205 -543 0 c-579 0 -546
2 -545 -40 1 -51 14 -255 17 -272 2 -13 6 -52 9 -88 7 -74 43 -320 57 -395 10
-48 14 -69 23 -117 34 -177 142 -556 191 -673 7 -16 27 -68 45 -115 47 -122
180 -394 251 -513 119 -198 251 -371 402 -526 73 -74 342 -315 375 -335 9 -6
12 245 12 1242 l0 1248 -145 0 c-123 0 -145 -3 -146 -16 0 -8 -1 -417 -1 -909
l-1 -893 -26 28 c-46 50 -147 195 -210 301 -188 318 -347 727 -436 1123 -9 41
-18 82 -20 90 -31 137 -85 475 -85 533 l0 33 1268 -1 c1261 0 1267 0 1265 -20
-1 -11 -4 -49 -8 -85 -3 -36 -10 -90 -15 -120 -5 -30 -12 -75 -15 -100 -3 -25
-10 -61 -15 -80 -5 -19 -11 -51 -14 -70 -26 -174 -153 -623 -226 -795 -116
-275 -217 -473 -325 -631 -59 -87 -149 -203 -154 -198 -3 3 -6 411 -6 907 l0
902 -142 1 c-122 1 -143 -2 -147 -15 -7 -28 -5 -2481 2 -2481 4 0 23 15 42 33
19 18 85 75 145 127 317 273 539 564 734 963 88 181 221 523 246 631 3 11 16
62 30 111 14 50 27 99 30 110 2 11 6 30 9 43 31 125 38 160 66 322 25 147 35
215 45 315 3 33 8 74 10 90 2 17 7 73 10 125 3 52 8 121 10 153 l4 57 -544 0
c-425 0 -544 3 -547 13 -2 6 -4 98 -3 202 l0 190 774 3 774 2 -7 -152 c-7
-155 -10 -210 -21 -328 -23 -245 -42 -397 -71 -575 -14 -91 -46 -265 -54 -295
-5 -19 -11 -48 -13 -65 -9 -57 -58 -251 -98 -388 -147 -509 -340 -913 -608
-1272 -283 -379 -628 -691 -1044 -942 l-108 -65 -72 43 c-565 334 -1015 783
-1315 1315 -34 60 -61 111 -59 114 1 3 -7 19 -19 35 -17 25 -70 137 -119 250
-76 175 -200 558 -239 737 -3 12 -13 55 -22 93 -20 89 -23 105 -29 134 -2 14
-9 47 -14 75 -28 137 -48 266 -71 436 -6 47 -13 96 -15 110 -2 14 -6 57 -10
95 -3 39 -8 81 -10 95 -7 49 -24 290 -30 443 l-5 107 764 0 764 0 -1 -205z"/>
</g>
</svg>
